<?xml version="1.0" encoding="iso-8859-1"?>
<!-- Generator: Adobe Illustrator 18.1.1, SVG Export Plug-In . SVG Version: 6.00 Build 0)  -->
<svg version="1.1" id="Capa_1" xmlns="http://www.w3.org/2000/svg" xmlns:xlink="http://www.w3.org/1999/xlink" x="0px" y="0px"
	 viewBox="0 0 16.118 16.118" style="enable-background:new 0 0 16.118 16.118;" xml:space="preserve">
<g>
	<g>
		<g>
			<path style="fill:#090509;" d="M16.118,9.277c0,0-0.061-1.742-0.588-2.525c0,0-0.151-0.205-0.508-0.342
				c0,0-0.029-0.009-0.076-0.024c-0.317-0.149-0.619-0.244-0.619-0.244c-0.065-0.022-0.123-0.046-0.174-0.068
				c-0.216-0.106-0.395-0.227-0.432-0.339c0,0,0.019-0.061-0.043-0.127c0.265-0.301,0.457-0.687,0.52-1.057
				c0.053-0.054,0.106-0.142,0.13-0.281c0.042-0.156,0.096-0.426,0.001-0.552c-0.006-0.006-0.011-0.013-0.017-0.018
				c0.089-0.326,0.203-1.001-0.201-1.46c-0.036-0.046-0.263-0.317-0.747-0.46l-0.231-0.08c-0.381-0.118-0.622-0.144-0.63-0.145
				c-0.018-0.002-0.035,0-0.053,0.004c-0.013,0.004-0.057,0.017-0.093,0.011c-0.091-0.013-0.228,0.034-0.252,0.043
				c-0.031,0.013-0.769,0.308-0.993,0.996c-0.02,0.055-0.111,0.347,0.009,1.064c-0.018,0.013-0.034,0.027-0.049,0.045
				c-0.095,0.126-0.041,0.397,0.003,0.552c0.021,0.137,0.075,0.225,0.127,0.28c0.059,0.395,0.249,0.773,0.499,1.064
				c-0.05,0.049-0.066,0.089-0.071,0.108L11.63,5.717l-0.003,0.014c-0.039,0.123-0.247,0.252-0.485,0.366
				c-0.07-0.204-0.15-0.398-0.253-0.55c0,0-0.15-0.206-0.507-0.343c0,0-0.03-0.009-0.077-0.024C9.988,5.03,9.687,4.935,9.687,4.935
				C9.622,4.913,9.565,4.889,9.513,4.867C9.298,4.761,9.119,4.64,9.081,4.527c0,0,0.019-0.061-0.043-0.127
				c0.265-0.301,0.458-0.687,0.52-1.057c0.053-0.053,0.106-0.142,0.13-0.281C9.732,2.906,9.785,2.635,9.69,2.51
				C9.685,2.504,9.68,2.497,9.673,2.492c0.089-0.326,0.203-1.001-0.2-1.459C9.437,0.987,9.21,0.715,8.725,0.572l-0.231-0.08
				c-0.38-0.118-0.621-0.144-0.63-0.145c-0.018-0.002-0.035,0-0.053,0.004C7.799,0.356,7.754,0.367,7.718,0.362
				C7.627,0.35,7.491,0.396,7.466,0.405C7.435,0.418,6.697,0.713,6.473,1.401c-0.02,0.055-0.111,0.347,0.008,1.064
				C6.464,2.478,6.447,2.493,6.433,2.51C6.338,2.635,6.392,2.906,6.435,3.061c0.021,0.138,0.076,0.225,0.127,0.28
				c0.058,0.395,0.248,0.773,0.499,1.064C7.012,4.452,6.996,4.493,6.99,4.512L6.989,4.51L6.986,4.523
				c-0.099,0.314-1.3,0.678-1.3,0.678C5.328,5.339,5.178,5.544,5.178,5.544C5.078,5.691,5.001,5.876,4.932,6.073
				C4.93,6.072,4.928,6.072,4.926,6.071C4.711,5.965,4.532,5.844,4.494,5.731c0,0,0.019-0.061-0.043-0.127
				c0.265-0.301,0.457-0.687,0.52-1.057c0.053-0.054,0.106-0.142,0.13-0.281C5.145,4.11,5.198,3.84,5.103,3.713
				C5.098,3.707,5.093,3.7,5.087,3.695c0.089-0.326,0.203-1.001-0.201-1.46C4.849,2.19,4.623,1.919,4.138,1.777l-0.232-0.08
				c-0.38-0.118-0.621-0.144-0.63-0.145c-0.018-0.002-0.035,0-0.052,0.004C3.211,1.56,3.166,1.572,3.131,1.566
				C3.04,1.554,2.903,1.6,2.878,1.609C2.847,1.623,2.109,1.919,1.885,2.606C1.864,2.662,1.774,2.953,1.894,3.67
				C1.875,3.683,1.86,3.698,1.846,3.715C1.751,3.841,1.804,4.111,1.847,4.267c0.022,0.137,0.075,0.225,0.128,0.28
				C2.035,4.942,2.225,5.32,2.475,5.611C2.426,5.659,2.408,5.7,2.403,5.719V5.717L2.399,5.729c-0.1,0.314-1.3,0.678-1.3,0.678
				C0.741,6.544,0.589,6.751,0.589,6.751C0.062,7.534,0,9.276,0,9.276c0.005,0.304,0.4,5.129,4.148,6.496
				c0.061-0.695,0.233-1.992,0.704-2.69c0,0,0.189-0.258,0.635-0.429c0,0,1.507-0.455,1.63-0.848l0.003-0.018l0.002,0.002
				c0.006-0.023,0.026-0.074,0.089-0.135c-0.313-0.365-0.551-0.836-0.623-1.333c-0.066-0.068-0.133-0.178-0.161-0.348
				C6.372,9.776,6.305,9.437,6.424,9.281c0.018-0.021,0.038-0.043,0.06-0.056C6.335,8.325,6.447,7.96,6.473,7.891
				c0.282-0.862,1.206-1.232,1.245-1.247c0.03-0.013,0.202-0.071,0.316-0.054C8.079,6.595,8.136,6.58,8.151,6.576
				C8.174,6.569,8.195,6.568,8.216,6.57C8.229,6.571,8.53,6.603,9.005,6.752l0.291,0.099c0.606,0.18,0.889,0.517,0.934,0.576
				c0.507,0.575,0.366,1.42,0.255,1.827c0.007,0.008,0.013,0.017,0.02,0.023c0.118,0.159,0.053,0.497-0.003,0.694
				c-0.029,0.173-0.097,0.282-0.161,0.348c-0.08,0.467-0.32,0.95-0.654,1.327c0.077,0.084,0.054,0.159,0.054,0.159
				c0.048,0.142,0.271,0.293,0.542,0.426c0.065,0.028,0.135,0.057,0.217,0.087c0,0,0.377,0.119,0.775,0.305
				c0.06,0.019,0.098,0.031,0.098,0.031c0.446,0.17,0.634,0.428,0.634,0.428c0.417,0.618,0.601,1.713,0.681,2.438
				C16.176,14.315,16.118,9.277,16.118,9.277z"/>
		</g>
	</g>
</g>
<g>
</g>
<g>
</g>
<g>
</g>
<g>
</g>
<g>
</g>
<g>
</g>
<g>
</g>
<g>
</g>
<g>
</g>
<g>
</g>
<g>
</g>
<g>
</g>
<g>
</g>
<g>
</g>
<g>
</g>
</svg>
